<svg height="42" viewBox="0 0 42 42" width="42" xmlns="http://www.w3.org/2000/svg">
    <g fill="none" fill-rule="evenodd">
        <path d="m181.042804 10.1344144c2.783471 0 5.042804-2.30620793 5.042804-5.0905946 0-2.7835627-2.25915-5.04280414-5.042804-5.04280414s-5.042804 2.25924144-5.042804 5.04280414c0 2.78438667 2.258417 5.0905946 5.042804 5.0905946zm18.510912 31.8655856v-13.8843053c0-3.6562413.693693-7.1906261 5.220874-7.1906261 4.296295 0 4.516287 3.8685607 4.52669 7.0600189l.00049 14.0149125h8.69813v-15.40307c0-7.5375186-1.620022-13.3405748-10.432501-13.3405748-4.236501 0-7.076185 2.3249761-8.238719 4.5280958h-.121857v-3.8249725h-8.351237v28.0405215zm-14.152463 0v-28.0405215h-8.707468v28.0405215z" fill="#000" fill-rule="nonzero" transform="translate(-176)" />
    </g>
</svg>
