<svg height="40" viewBox="0 0 48 40" width="48" xmlns="http://www.w3.org/2000/svg">
    <g fill="none" fill-rule="evenodd">
        <!-- <path d="m-1207.5-2368.5h2559v2570h-2559z" fill="#fff" stroke="#979797" />
        <path d="m-1208-486h2560v714h-2560z" fill="#fff" /> -->
        <path d="m15.1065314 43.4923976c18.091418 0 27.9898014-14.9847666 27.9898014-27.9897099 0-.4263601 0-.8529033-.030487-1.2792633 1.9187576-1.4010282 3.5939856-3.137047 4.9338567-5.08620005-1.7664143.76135072-3.6851719 1.30965875-5.6649035 1.52279295 2.0405224-1.21819773 3.5938024-3.13695536 4.3248493-5.42128219-1.8884538 1.12691992-4.0203457 1.94924462-6.243607 2.37560468-1.7970843-1.91875763-4.3553363-3.10655997-7.1878796-3.10655997-5.4516776 0-9.8375009 4.41621872-9.8375009 9.83750098 0 .7614423.0913694 1.522793.2436212 2.2537483-8.162273-.4264517-15.44152199-4.3248493-20.28410078-10.29434805-.85290324 1.46191058-1.34005418 3.13704697-1.34005418 4.96443515 0 3.4111552 1.73592726 6.4263458 4.38564018 8.1928516-1.61407086-.0607909-3.13704696-.5176379-4.44661415-1.2485932v.1217648c0 4.7816964 3.38075976 8.7409765 7.88834789 9.6547622-.82223315.2131342-1.70553182.3349906-2.58873895.3349906-.63967743 0-1.24877632-.0608824-1.85796676-.1522518 1.24877632 3.8984892 4.87315735 6.730941 9.19800665 6.8224019-3.3807598 2.649713-7.61433122 4.2029929-12.21319721 4.2029929-.8223247 0-1.58367543-.0304869-2.37560469-.1217648 4.3553363 2.8018732 9.53290574 4.4161272 15.1065314 4.4161272z" fill="#000" fill-rule="nonzero" transform="translate(0 -4)" />
    </g>
</svg>
