<svg height="47" viewBox="0 0 47 47" width="47" xmlns="http://www.w3.org/2000/svg">
    <g fill="none" fill-rule="evenodd">
        <path d="m106.51244 44.9155814-.00044-.1707914c-.00357-.8785953-.027667-3.7624776-.027667-5.5853899 0 0-6.562484 1.4062466-7.9406241-2.793725l-.0161389-.0400256c-.1389235-.3393816-1.1623774-2.738371-2.5900865-3.3912712 0 0-2.1469065-1.4718898.149963-1.4436916 0 0 2.334406.1874995 3.6187963 2.4187259 2.0530652 3.6187048 5.4937002 2.5781189 6.8343042 1.9593154.215697-1.4999964.825071-2.5405823 1.499996-3.1592942-5.240558-.581267-10.5280816-1.3406951-10.5280816-10.3593503 0-2.5781189.7125532-3.871939 2.2125497-5.5218985-.2438044-.6093735-1.0406775-3.1218492.2437127-6.3656464 1.9594072-.60937358 6.4687342 2.5312439 6.4687342 2.5312439 1.874996-.5249621 3.890616-.7968731 5.887468-.7968731s4.012472.271911 5.887468.7968731c0 0 4.509419-3.14995583 6.468734-2.5312439 1.284391 3.2531355.487517 5.7562729.243805 6.3656464 1.499996 1.6593894 2.418726 2.953118 2.418726 5.5218985 0 9.0468534-5.521899 9.7686534-10.762456 10.3593503.862516.7405683 1.593746 2.1468149 1.593746 4.3499347l-.000695.9051468c-.004328 2.9596454-.027412 6.2356948-.027412 6.9323894 0 .6093736.431212 1.3499419 1.621853 1.1343357 9.374978-3.1125109 15.731194-12.0093098 15.731194-22.4061966 0-13.0031123-10.54685-22.87494545-23.549962-22.87494545-13.0031123 0-22.949927 9.87183315-22.949927 22.87494545 0 10.3968868 6.5437161 19.2936857 15.890587 22.4249649 1.199979.2156061 1.621853-.5250537 1.621853-1.1344273zm-8.7937108-12.290559c.0656432-.1218564-.0281066-.271911-.2156062-.3656608-.1874995-.0562132-.3375541-.0281066-.4031057.0656432-.0656431.1218564.0281066.2719109.2156062.3656607.149963.0937498.3374626.0656432.4031057-.0656431zm.9468361 1.0405858c.121948-.0937497.0937498-.3093559-.0655516-.4874255-.1500545-.1500546-.3656607-.2156978-.4875171-.0937498-.1218564.0937498-.0937498.3093559.0656431.4874256.1499631.1500545.3655692.2156977.4874256.0937497zm.9281594 1.38757c.1499631-.121948.1499631-.3656608 0-.5812669-.1312863-.2156062-.3749991-.309356-.5249621-.1874996-.1500546.0937498-.1500546.3374626 0 .5530688.149963.2156977.4031057.3094475.5249621.2156977zm1.2749603 1.2842987c.121948-.1218564.065643-.4031057-.121856-.5811754-.206268-.2156977-.487517-.2438043-.609374-.0937498-.1499629.1218564-.09375.4031058.121857.5811754.215697.2156977.487517.2438044.609373.0937498zm1.753139.7687665c.056305-.1874996-.121856-.4031058-.403106-.4875172-.243712-.0655516-.515623.0281982-.581266.2156977-.065644.1874996.121856.4031058.403105.459319.243805.0937498.525054 0 .581267-.1874995zm3.281242.2719109c.271911-.0656431.459411-.2438043.431304-.4313039-.028198-.1780696-.281249-.299926-.55316-.2718194-.271911.0656432-.459411.2437128-.431212.459319.028106.1874995.271819.3094475.553068.2438043zm-1.837459.2156062c.27182 0 .487518-.149963.487518-.3374626 0-.2156977-.243805-.3656607-.525054-.3375541-.27182 0-.487517.1500546-.487517.3375541 0 .2156062.215697.3655692.525053.3374626z" fill="#fff" fill-rule="nonzero" transform="translate(-89)" />
    </g>
</svg>
